<svg width="78" height="12" viewBox="0 0 78 12" fill="none" xmlns="http://www.w3.org/2000/svg">
<path fill-rule="evenodd" clip-rule="evenodd" d="M77.5423 8.27471C77.237 8.99165 76.8127 9.62506 76.27 10.1749C75.7266 10.7248 75.0798 11.1668 74.3275 11.5002C73.5751 11.8329 72.7526 12 71.8593 12C70.9433 12 70.1123 11.8281 69.3656 11.4835C68.6196 11.139 67.9806 10.6858 67.4493 10.1248C66.9173 9.56381 66.5049 8.92204 66.2109 8.20023C65.9169 7.47773 65.7696 6.73295 65.7696 5.96659C65.7696 5.1891 65.9226 4.43875 66.228 3.71694C66.5333 2.99443 66.9598 2.35824 67.5088 1.80835C68.0571 1.25847 68.7068 0.819258 69.4591 0.491415C70.2108 0.164269 71.034 0 71.9273 0C72.8433 0 73.6743 0.172622 74.421 0.516473C75.167 0.861021 75.806 1.31694 76.3373 1.88353C76.8693 2.45012 77.2788 3.09466 77.5671 3.81647C77.8555 4.53898 78 5.27749 78 6.03341C78 6.81091 77.8477 7.55847 77.5423 8.27471ZM74.472 4.80835C74.3586 4.43596 74.1858 4.10812 73.9541 3.82483C73.7225 3.54153 73.4341 3.31392 73.0891 3.142C72.7441 2.96937 72.3403 2.88306 71.8763 2.88306C71.4016 2.88306 70.9915 2.97216 70.6465 3.14965C70.3014 3.32784 70.0159 3.56381 69.79 3.85824C69.5633 4.15267 69.3968 4.48608 69.2898 4.85847C69.1821 5.23086 69.1283 5.6109 69.1283 6C69.1283 6.40023 69.185 6.78585 69.2983 7.15824C69.4109 7.53063 69.5803 7.86125 69.807 8.15012C70.0329 8.43898 70.3184 8.67216 70.6635 8.84965C71.0085 9.02784 71.4186 9.11694 71.8933 9.11694C72.3687 9.11694 72.781 9.02506 73.1316 8.8413C73.4823 8.65824 73.7678 8.41949 73.9881 8.12506C74.2085 7.83063 74.3728 7.49443 74.4805 7.11647C74.5875 6.73921 74.6413 6.35569 74.6413 5.96659C74.6413 5.56636 74.5846 5.18074 74.472 4.80835ZM58.9573 7.00858C58.6123 7.39142 58.1943 7.69698 57.7019 7.92529C57.2103 8.1529 56.6705 8.26636 56.0825 8.26636H54.1144V11.8998H50.8068V0.0668214H55.9975C56.5855 0.0668214 57.1281 0.186543 57.6261 0.42529C58.1235 0.664037 58.5506 0.975174 58.9063 1.358C59.2626 1.74153 59.5425 2.18074 59.7465 2.67494C59.9498 3.16984 60.0518 3.66682 60.0518 4.16659C60.0518 4.68933 59.9555 5.19745 59.7635 5.69165C59.5708 6.18585 59.3023 6.62506 58.9573 7.00858ZM56.3878 3.16636C56.1838 2.98886 55.9804 2.89977 55.7771 2.89977H54.1144V5.43341H55.8614C56.0655 5.43341 56.2546 5.34153 56.4303 5.15847C56.6053 4.97471 56.6931 4.64478 56.6931 4.16659C56.6931 3.67796 56.5911 3.34455 56.3878 3.16636ZM40.4388 2.89977H36.7245V11.8998H33.4161V0.0668214H43.7472V11.8998H40.4388V2.89977ZM20.2463 8.16682C20.4844 8.45568 20.7748 8.68608 21.1198 8.858C21.4648 9.03063 21.8524 9.11694 22.2824 9.11694C22.5084 9.11694 22.74 9.09188 22.9773 9.04176C23.2154 8.99165 23.4442 8.90812 23.6645 8.79188C23.8849 8.67494 24.0825 8.52529 24.2582 8.34153C24.4332 8.15847 24.572 7.93295 24.674 7.66636L27.3711 9.24988C27.1897 9.68353 26.9155 10.0726 26.5486 10.4165C26.1809 10.761 25.7622 11.0499 25.2932 11.2831C24.8235 11.5162 24.3205 11.6944 23.7835 11.8162C23.2458 11.9387 22.723 12 22.2144 12C21.321 12 20.5035 11.8246 19.7632 11.4752C19.0222 11.1251 18.3832 10.6608 17.8462 10.0831C17.3092 9.50534 16.8933 8.84965 16.5993 8.11671C16.3053 7.38306 16.1587 6.63898 16.1587 5.88306C16.1587 5.16125 16.2968 4.44988 16.5738 3.74965C16.8508 3.05012 17.2553 2.42227 17.7867 1.86682C18.318 1.31137 18.9627 0.861021 19.7207 0.516473C20.478 0.172622 21.343 0 22.3157 0C23.4803 0 24.4899 0.235963 25.3442 0.708585C26.1979 1.18051 26.8334 1.80557 27.252 2.58306L24.7251 4.34965C24.6117 4.06149 24.4615 3.82204 24.2752 3.63341C24.0889 3.44478 23.882 3.29443 23.656 3.18306C23.43 3.07239 23.1948 2.99443 22.9518 2.94988C22.7089 2.90603 22.4744 2.88306 22.2484 2.88306C21.773 2.88306 21.3635 2.97494 21.0185 3.158C20.6735 3.34176 20.3909 3.58051 20.1705 3.87494C19.9495 4.16937 19.7859 4.50278 19.6782 4.87517C19.5705 5.24756 19.5174 5.61647 19.5174 5.98329C19.5174 6.39466 19.579 6.78933 19.7037 7.16659C19.8284 7.54455 20.009 7.87796 20.2463 8.16682ZM7.29404 9.5833H4.08766L3.37569 11.8998H0L4.18968 0.0668214H7.20902L11.3817 11.8998H8.02302L7.29404 9.5833ZM5.69935 3.74965L4.58003 7.41647H6.76767L5.69935 3.74965Z" fill="#999999"/>
</svg>