<svg width="20" height="20" viewBox="0 0 20 20" fill="none" xmlns="http://www.w3.org/2000/svg">
<path fill-rule="evenodd" clip-rule="evenodd" d="M7 0C3.13401 0 0 3.13401 0 7V13C0 16.866 3.13401 20 7 20H13C16.866 20 20 16.866 20 13V7C20 3.13401 16.866 0 13 0H7ZM2 7C2 4.23858 4.23858 2 7 2H13C15.7614 2 18 4.23858 18 7V13C18 15.7614 15.7614 18 13 18H7C4.23858 18 2 15.7614 2 13V7ZM11 6C11 5.44772 10.5523 5 10 5C9.44772 5 9 5.44772 9 6V11.5858L7.70711 10.2929C7.31658 9.90237 6.68342 9.90237 6.29289 10.2929C5.90237 10.6834 5.90237 11.3166 6.29289 11.7071L9.29289 14.7071C9.68342 15.0976 10.3166 15.0976 10.7071 14.7071L13.7071 11.7071C14.0976 11.3166 14.0976 10.6834 13.7071 10.2929C13.3166 9.90237 12.6834 9.90237 12.2929 10.2929L11 11.5858V6Z" fill="#333333"/>
</svg>