<svg width="20" height="20" viewBox="0 0 20 20" fill="none" xmlns="http://www.w3.org/2000/svg">
<path fill-rule="evenodd" clip-rule="evenodd" d="M7 20C3.13401 20 0 16.866 0 13V7C0 3.13401 3.13401 0 7 0H13C16.866 0 20 3.13401 20 7V13C20 16.866 16.866 20 13 20H7ZM2 13C2 15.7614 4.23858 18 7 18H13C15.7614 18 18 15.7614 18 13V7C18 4.23858 15.7614 2 13 2H7C4.23858 2 2 4.23858 2 7V13ZM11 14C11 14.5523 10.5523 15 10 15C9.44772 15 9 14.5523 9 14V8.41421L7.70711 9.70711C7.31658 10.0976 6.68342 10.0976 6.29289 9.70711C5.90237 9.31658 5.90237 8.68342 6.29289 8.29289L9.29289 5.29289C9.68342 4.90237 10.3166 4.90237 10.7071 5.29289L13.7071 8.29289C14.0976 8.68342 14.0976 9.31658 13.7071 9.70711C13.3166 10.0976 12.6834 10.0976 12.2929 9.70711L11 8.41421V14Z" fill="#333333"/>
</svg>