<svg width="13" height="15" viewBox="0 0 13 15" fill="none" xmlns="http://www.w3.org/2000/svg">
<path fill-rule="evenodd" clip-rule="evenodd" d="M8 2.5C8 1.11929 9.11929 0 10.5 0C11.8807 0 13 1.11929 13 2.5C13 3.88071 11.8807 5 10.5 5C9.8622 5 9.28018 4.76116 8.8385 4.36804C8.82633 4.37921 8.81349 4.38988 8.8 4.4L6.8 5.9C6.57909 6.06569 6.26569 6.02091 6.1 5.8C5.93431 5.57909 5.97909 5.26569 6.2 5.1L8.2 3.6C8.21334 3.58999 8.22702 3.58075 8.24098 3.57228C8.08647 3.24733 8 2.88376 8 2.5ZM10.5 4C9.67157 4 9 3.32843 9 2.5C9 1.67157 9.67157 1 10.5 1C11.3284 1 12 1.67157 12 2.5C12 3.32843 11.3284 4 10.5 4Z" fill="#333333"/>
<path fill-rule="evenodd" clip-rule="evenodd" d="M4.75901 8.57228C4.77298 8.58076 4.78666 8.58999 4.8 8.6L6.8 10.1C7.02091 10.2657 7.06569 10.5791 6.9 10.8C6.73431 11.0209 6.42091 11.0657 6.2 10.9L4.2 9.4C4.1865 9.38988 4.17367 9.37921 4.1615 9.36804C3.71982 9.76116 3.1378 10 2.5 10C1.11929 10 0 8.88071 0 7.5C0 6.11929 1.11929 5 2.5 5C3.88071 5 5 6.11929 5 7.5C5 7.88376 4.91353 8.24733 4.75901 8.57228ZM2.5 9C1.67157 9 1 8.32843 1 7.5C1 6.67157 1.67157 6 2.5 6C3.32843 6 4 6.67157 4 7.5C4 8.32843 3.32843 9 2.5 9Z" fill="#333333"/>
<path fill-rule="evenodd" clip-rule="evenodd" d="M11 7.5C11 7.22386 10.7761 7 10.5 7C10.2239 7 10 7.22386 10 7.5V10.05C8.85888 10.2816 8 11.2905 8 12.5C8 13.8807 9.11929 15 10.5 15C11.8807 15 13 13.8807 13 12.5C13 11.2905 12.1411 10.2816 11 10.05V7.5ZM9 12.5C9 11.6716 9.67157 11 10.5 11C11.3284 11 12 11.6716 12 12.5C12 13.3284 11.3284 14 10.5 14C9.67157 14 9 13.3284 9 12.5Z" fill="#333333"/>
</svg>