<svg width="22" height="14" viewBox="0 0 22 14" fill="none" xmlns="http://www.w3.org/2000/svg">
    <path fill-rule="evenodd" clip-rule="evenodd" d="M16.4576 3.84755C17.9142 4.86718 19.1161 6.0974 19.9011 7C19.1161 7.9026 17.9142 9.13282 16.4576 10.1524C14.88 11.2568 13.1674 12 11.4625 12C9.75763 12 8.04508 11.2568 6.46746 10.1524C5.01083 9.13282 3.80896 7.9026 3.02394 7C3.80896 6.0974 5.01083 4.86718 6.46746 3.84755C6.519 3.81148 6.57068 3.77578 6.6225 3.74049C6.51809 4.14288 6.46252 4.56495 6.46252 5C6.46252 7.76142 8.7011 10 11.4625 10C14.2239 10 16.4625 7.76142 16.4625 5C16.4625 4.56495 16.407 4.14288 16.3025 3.74049C16.3544 3.77578 16.406 3.81148 16.4576 3.84755ZM11.4625 0C16.0118 0 19.916 3.92521 21.5903 5.89701C22.1366 6.54044 22.1366 7.45956 21.5903 8.10299C19.916 10.0748 16.0118 14 11.4625 14C6.91329 14 3.00906 10.0748 1.3348 8.10299C0.788465 7.45956 0.788465 6.54044 1.3348 5.89701C3.00906 3.92521 6.91329 0 11.4625 0ZM11.4625 2C9.80567 2 8.46252 3.34315 8.46252 5C8.46252 6.65685 9.80567 8 11.4625 8C13.1194 8 14.4625 6.65685 14.4625 5C14.4625 3.34315 13.1194 2 11.4625 2Z" fill="black"/>
</svg>