<svg width="19" height="13" viewBox="0 0 19 13" fill="none" xmlns="http://www.w3.org/2000/svg">
    <path d="M8.96686 11.9968L7.82623 8.82495H3.45905L2.34186 11.9968H0.373108L4.64655 0.528076H6.6778L10.9512 11.9968H8.96686ZM7.33405 7.21558L6.26373 4.1062C6.18561 3.89787 6.07623 3.56974 5.93561 3.12183C5.80019 2.67391 5.70644 2.34578 5.65436 2.13745C5.51373 2.77808 5.308 3.4786 5.03717 4.23901L4.00592 7.21558H7.33405ZM17.67 11.9968L17.3028 10.7937H17.2403C16.8236 11.3197 16.4044 11.6791 15.9825 11.8718C15.5606 12.0593 15.0189 12.1531 14.3575 12.1531C13.5085 12.1531 12.8445 11.9239 12.3653 11.4656C11.8913 11.0072 11.6544 10.3588 11.6544 9.52026C11.6544 8.62964 11.9851 7.95776 12.6465 7.50464C13.308 7.05151 14.3158 6.80412 15.67 6.76245L17.1622 6.71558V6.25464C17.1622 5.70256 17.032 5.2911 16.7715 5.02026C16.5163 4.74422 16.1179 4.6062 15.5762 4.6062C15.1335 4.6062 14.709 4.67131 14.3028 4.80151C13.8965 4.93172 13.5059 5.08537 13.1309 5.26245L12.5372 3.94995C13.0059 3.70516 13.5189 3.52026 14.0762 3.39526C14.6335 3.26506 15.1596 3.19995 15.6544 3.19995C16.7533 3.19995 17.5814 3.43953 18.1387 3.9187C18.7012 4.39787 18.9825 5.15047 18.9825 6.17651V11.9968H17.67ZM14.9356 10.7468C15.6023 10.7468 16.1361 10.5619 16.5372 10.1921C16.9434 9.81714 17.1465 9.2937 17.1465 8.62183V7.87183L16.0372 7.9187C15.1726 7.94995 14.5424 8.09578 14.1465 8.3562C13.7559 8.61141 13.5606 9.00464 13.5606 9.53589C13.5606 9.92131 13.6752 10.2208 13.9044 10.4343C14.1335 10.6427 14.4773 10.7468 14.9356 10.7468Z" fill="black"/>
</svg>
