<svg width="27" height="17" viewBox="0 0 27 17" fill="none" xmlns="http://www.w3.org/2000/svg">
    <path d="M12.2302 16L10.6618 11.6387H4.65692L3.12079 16H0.413757L6.28973 0.230469H9.0827L14.9587 16H12.2302ZM9.98505 9.42578L8.51337 5.15039C8.40594 4.86393 8.25555 4.41276 8.06219 3.79688C7.876 3.18099 7.74709 2.72982 7.67548 2.44336C7.48212 3.32422 7.19924 4.28743 6.82684 5.33301L5.40887 9.42578H9.98505ZM24.197 16L23.6921 14.3457H23.6061C23.0332 15.069 22.4567 15.5632 21.8766 15.8281C21.2966 16.0859 20.5518 16.2148 19.6423 16.2148C18.475 16.2148 17.5619 15.8997 16.903 15.2695C16.2513 14.6393 15.9255 13.7477 15.9255 12.5947C15.9255 11.3701 16.3802 10.4463 17.2897 9.82324C18.1992 9.2002 19.585 8.86003 21.447 8.80273L23.4987 8.73828V8.10449C23.4987 7.34538 23.3197 6.77962 22.9616 6.40723C22.6107 6.02767 22.0628 5.83789 21.3181 5.83789C20.7093 5.83789 20.1257 5.92741 19.5671 6.10645C19.0085 6.28548 18.4714 6.49674 17.9557 6.74023L17.1393 4.93555C17.7839 4.59896 18.4893 4.34473 19.2556 4.17285C20.0218 3.99382 20.7451 3.9043 21.4255 3.9043C22.9365 3.9043 24.0752 4.23372 24.8415 4.89258C25.6149 5.55143 26.0016 6.58626 26.0016 7.99707V16H24.197ZM20.4372 14.2812C21.3539 14.2812 22.0879 14.027 22.6393 13.5186C23.1979 13.0029 23.4772 12.2832 23.4772 11.3594V10.3281L21.9518 10.3926C20.763 10.4355 19.8965 10.6361 19.3522 10.9941C18.8151 11.3451 18.5466 11.8857 18.5466 12.6162C18.5466 13.1462 18.7041 13.5579 19.0192 13.8516C19.3343 14.138 19.807 14.2812 20.4372 14.2812Z" fill="black"/>
</svg>