<svg width="34" height="22" viewBox="0 0 34 22" fill="none" xmlns="http://www.w3.org/2000/svg">
    <path d="M15.4788 21L13.4827 15.4492H5.84009L3.88501 21H0.439697L7.91821 0.929688H11.4729L18.9514 21H15.4788ZM12.6213 12.6328L10.7483 7.19141C10.6116 6.82682 10.4202 6.2526 10.1741 5.46875C9.93709 4.6849 9.77303 4.11068 9.68188 3.74609C9.43579 4.86719 9.07576 6.0931 8.60181 7.42383L6.79712 12.6328H12.6213ZM30.7092 21L30.0667 18.8945H29.9573C29.2281 19.8151 28.4944 20.444 27.7561 20.7812C27.0178 21.1094 26.0699 21.2734 24.9124 21.2734C23.4267 21.2734 22.2646 20.8724 21.426 20.0703C20.5966 19.2682 20.1819 18.1335 20.1819 16.666C20.1819 15.1074 20.7607 13.9316 21.9182 13.1387C23.0758 12.3457 24.8394 11.9128 27.2092 11.8398L29.8206 11.7578V10.9512C29.8206 9.98503 29.5927 9.26497 29.137 8.79102C28.6903 8.30794 27.9931 8.06641 27.0452 8.06641C26.2704 8.06641 25.5276 8.18034 24.8167 8.4082C24.1057 8.63607 23.4221 8.90495 22.7659 9.21484L21.7268 6.91797C22.5471 6.48958 23.4449 6.16602 24.4202 5.94727C25.3954 5.7194 26.316 5.60547 27.1819 5.60547C29.1051 5.60547 30.5543 6.02474 31.5295 6.86328C32.5139 7.70182 33.0061 9.01888 33.0061 10.8145V21H30.7092ZM25.9241 18.8125C27.0907 18.8125 28.025 18.4889 28.7268 17.8418C29.4377 17.1855 29.7932 16.2695 29.7932 15.0938V13.7812L27.8518 13.8633C26.3388 13.918 25.2359 14.1732 24.5432 14.6289C23.8596 15.0755 23.5178 15.7637 23.5178 16.6934C23.5178 17.3678 23.7183 17.8919 24.1194 18.2656C24.5204 18.6302 25.122 18.8125 25.9241 18.8125Z" fill="black"/>
</svg>