<svg width="23" height="16" viewBox="0 0 23 16" fill="none" xmlns="http://www.w3.org/2000/svg">
    <path fill-rule="evenodd" clip-rule="evenodd" d="M6.99999 3C6.99999 4.65685 5.65684 6 3.99999 6C2.34314 6 0.99999 4.65685 0.99999 3C0.99999 1.34315 2.34314 0 3.99999 0C5.65684 0 6.99999 1.34315 6.99999 3ZM5.24741 8.86009L0.451182 14.3415C-0.114578 14.9881 0.344599 16 1.20376 16H13L6.75257 8.86009C6.35416 8.40476 5.64583 8.40476 5.24741 8.86009ZM12.2137 3.00071L8.52538 7.69489L15.9999 15.9999H21.9425C22.777 15.9999 23.2444 15.0382 22.7288 14.3821L13.7863 3.00071C13.3859 2.49114 12.614 2.49114 12.2137 3.00071Z" fill="black"/>
</svg>