<svg width="25" height="19" viewBox="0 0 25 19" fill="none" xmlns="http://www.w3.org/2000/svg">
    <path fill-rule="evenodd" clip-rule="evenodd" d="M5 12H2C0.895431 12 0 11.1046 0 9.99999V7.99998C0 6.89541 0.895424 5.99998 1.99999 5.99997L5 5.99996L10.2668 0.321492C10.8851 -0.345077 12 0.0923814 12 1.00153V17.0071C12 17.9166 10.8843 18.3538 10.2663 17.6865L5 12ZM23.7591 4.1292C23.1194 2.58498 22.1819 1.18187 21 -3.15548e-05L19.6087 1.39131C20.6078 2.39049 21.4004 3.5767 21.9412 4.88219C22.4819 6.18769 22.7603 7.58691 22.7603 8.99997C22.7603 10.413 22.4819 11.8122 21.9412 13.1177C21.4004 14.4232 20.6078 15.6094 19.6087 16.6086L21 18C22.1819 16.8181 23.1194 15.415 23.7591 13.8707C24.3987 12.3265 24.7279 10.6714 24.7279 8.99997C24.7279 7.32851 24.3987 5.67343 23.7591 4.1292ZM18.2294 2.30707C19.1083 3.186 19.8055 4.22943 20.2812 5.3778C20.7568 6.52617 21.0016 7.75698 21.0016 8.99997C21.0016 10.243 20.7568 11.4738 20.2812 12.6221C19.8055 13.7705 19.1083 14.8139 18.2294 15.6929L16.8317 14.2952C17.5271 13.5999 18.0787 12.7743 18.4551 11.8657C18.8314 10.9572 19.0251 9.98339 19.0251 8.99997C19.0251 8.01655 18.8314 7.04275 18.4551 6.13419C18.0787 5.22562 17.5271 4.40008 16.8317 3.7047L18.2294 2.30707ZM17.1192 9.07167C17.1342 7.50657 16.6595 5.97594 15.7615 4.69398L14.4778 5.59316C15.1883 6.60742 15.5639 7.81841 15.552 9.05669C15.5402 10.295 15.1415 11.4986 14.4118 12.4991L15.6781 13.4226C16.6004 12.158 17.1043 10.6368 17.1192 9.07167Z" fill="black"/>
</svg>