<svg width="20" height="20" viewBox="0 0 20 20" fill="none" xmlns="http://www.w3.org/2000/svg">
    <path fill-rule="evenodd" clip-rule="evenodd" d="M17 10C17 13.866 13.866 17 10 17C8.6099 17 7.31444 16.5948 6.22529 15.8961L15.8961 6.22529C16.5948 7.31444 17 8.6099 17 10ZM4.06915 18.0522C5.72846 19.2764 7.77973 20 10 20C15.5228 20 20 15.5228 20 10C20 4.47715 15.5228 0 10 0C4.47715 0 0 4.47715 0 10C0 12.2203 0.723592 14.2716 1.94782 15.9309L1.9023 15.9764L2.2681 16.3422C2.68477 16.8496 3.15041 17.3152 3.6578 17.7319L4.02362 18.0977L4.06915 18.0522ZM4.10396 13.7748L13.7748 4.10396C12.6856 3.40521 11.3901 3 10 3C6.13401 3 3 6.13401 3 10C3 11.3901 3.40521 12.6856 4.10396 13.7748Z" fill="black"/>
</svg>